<?xml version="1.0" encoding="UTF-8" standalone="no"?>
<!-- Created with Inkscape (http://www.inkscape.org/) -->

<svg
   xmlns:osb="http://www.openswatchbook.org/uri/2009/osb"
   xmlns:dc="http://purl.org/dc/elements/1.1/"
   xmlns:cc="http://creativecommons.org/ns#"
   xmlns:rdf="http://www.w3.org/1999/02/22-rdf-syntax-ns#"
   xmlns:svg="http://www.w3.org/2000/svg"
   xmlns="http://www.w3.org/2000/svg"
   xmlns:xlink="http://www.w3.org/1999/xlink"
   xmlns:sodipodi="http://sodipodi.sourceforge.net/DTD/sodipodi-0.dtd"
   xmlns:inkscape="http://www.inkscape.org/namespaces/inkscape"
   id="svg3586"
   version="1.1"
   inkscape:version="0.48.0 r9654"
   width="1765.7733"
   height="2289.2939"
   sodipodi:docname="logoChoco-dl.svg">
  <metadata
     id="metadata3592">
    <rdf:RDF>
      <cc:Work
         rdf:about="">
        <dc:format>image/svg+xml</dc:format>
        <dc:type
           rdf:resource="http://purl.org/dc/dcmitype/StillImage" />
        <dc:title></dc:title>
      </cc:Work>
    </rdf:RDF>
  </metadata>
  <defs
     id="defs3590">
    <linearGradient
       id="linearGradient5862"
       osb:paint="solid">
      <stop
         style="stop-color:#ffeeaa;stop-opacity:1;"
         offset="0"
         id="stop5864" />
    </linearGradient>
    <linearGradient
       inkscape:collect="always"
       xlink:href="#linearGradient5862"
       id="linearGradient6144"
       gradientUnits="userSpaceOnUse"
       gradientTransform="matrix(1,0,0,1.2524465,145.94532,365.39664)"
       x1="-538.0329"
       y1="372.13739"
       x2="2049.6184"
       y2="372.13739" />
  </defs>
  <sodipodi:namedview
     pagecolor="#ffffff"
     bordercolor="#666666"
     borderopacity="1"
     objecttolerance="10"
     gridtolerance="10"
     guidetolerance="10"
     inkscape:pageopacity="0"
     inkscape:pageshadow="2"
     inkscape:window-width="1920"
     inkscape:window-height="1082"
     id="namedview3588"
     showgrid="false"
     inkscape:zoom="0.12518555"
     inkscape:cx="3956.1868"
     inkscape:cy="-131.7488"
     inkscape:window-x="1280"
     inkscape:window-y="0"
     inkscape:window-maximized="0"
     inkscape:current-layer="svg3586"
     fit-margin-top="0"
     fit-margin-left="0"
     fit-margin-right="0"
     fit-margin-bottom="0"
     units="m" />
  <rect
     style="fill:#ffffff;fill-opacity:1;stroke:none"
     id="rect6037"
     width="1765.7733"
     height="2289.2939"
     x="0"
     y="0"
     rx="61.014137"
     ry="66.07399" />
  <rect
     style="fill:#5d4014;fill-opacity:1;stroke:none"
     id="rect5937"
     width="1582.559"
     height="1569.6926"
     x="91.607162"
     y="506.64377"
     rx="57.641495"
     ry="55.061657" />
  <path
     style="fill:#fa931d;fill-opacity:1;stroke:none"
     d="m 882.55278,590.49326 c -3.01574,0.002 -6.03821,0.0219 -9.0625,0.0625 -387.10865,5.19611 -696.72736,323.2351 -691.53125,710.34374 l 0.84375,26.0938 c 19.09241,376.5028 332.54728,670.466 709.5,665.4062 387.10862,-5.1961 696.69612,-323.2039 691.50002,-710.3125 -5.1555,-384.08435 -318.2514,-691.88334 -701.25002,-691.59374 z m 0.0312,79.875 c 339.36602,-0.25661 616.80692,272.45325 621.37502,612.78124 4.6042,343.0077 -269.7422,624.8021 -612.74997,629.4062 -334.00882,4.4834 -611.73892,-255.9835 -628.65625,-589.5937 l -0.75,-23.125 c -4.60414,-343.00773 269.74226,-624.8021 612.75,-629.40624 2.67975,-0.036 5.35908,-0.0605 8.03125,-0.0625 z"
     id="path6137"
     inkscape:connector-curvature="0" />
  <flowRoot
     xml:space="preserve"
     id="flowRoot6027"
     style="font-size:350px;font-style:normal;font-variant:normal;font-weight:normal;font-stretch:normal;text-align:start;line-height:125%;letter-spacing:0px;word-spacing:0px;writing-mode:lr-tb;text-anchor:start;fill:#5d4014;fill-opacity:1;stroke:#5d4014;stroke-opacity:1;font-family:Sans;-inkscape-font-specification:Sans"
     transform="translate(-103.60867,-88.224905)"><flowRegion
       id="flowRegion6029"><rect
         id="rect6031"
         width="2269.3293"
         height="862.92188"
         x="155.28157"
         y="112.26418"
         style="font-size:350px;font-style:normal;font-variant:normal;font-weight:normal;font-stretch:normal;text-align:start;line-height:125%;writing-mode:lr-tb;text-anchor:start;fill:#5d4014;fill-opacity:1;stroke:#5d4014;stroke-opacity:1;font-family:Sans;-inkscape-font-specification:Sans" /></flowRegion><flowPara
       id="flowPara6035"
       style="font-size:220px;font-style:normal;font-variant:normal;font-weight:normal;font-stretch:normal;text-align:start;line-height:125%;writing-mode:lr-tb;text-anchor:start;font-family:Sans;-inkscape-font-specification:Sans">Documentation</flowPara></flowRoot>  <g
     id="g6273"
     transform="translate(-1969.0771,-0.02963156)">
    <path
       transform="matrix(0.84662604,0,0,0.84662604,686.54055,343.58746)"
       sodipodi:open="true"
       sodipodi:end="9.3741115"
       sodipodi:start="3.1281706"
       d="m 2178.4127,987.56351 c -2.8118,-199.67947 164.7256,-363.72445 374.2053,-366.40472 209.4797,-2.68027 381.5759,157.01913 384.3877,356.6986 2.8119,199.67951 -164.7255,363.72441 -374.2052,366.40471 -203.9839,2.61 -373.6035,-149.0305 -383.9352,-343.2393"
       sodipodi:ry="361.58423"
       sodipodi:rx="379.33069"
       sodipodi:cy="982.71045"
       sodipodi:cx="2557.7092"
       id="path6169"
       style="fill:#fa931d;fill-opacity:1;stroke:none"
       sodipodi:type="arc" />
    <path
       transform="matrix(-0.93634265,0,0,-1,5379.7901,3186.5473)"
       sodipodi:end="6.2831853"
       sodipodi:start="3.1281706"
       d="m 2577.6849,1571.8722 c -0.9043,-53.9012 52.982,-98.1833 120.3585,-98.9068 67.3765,-0.7235 122.7291,42.3855 123.6335,96.2867 0.01,0.4367 0.011,0.8733 0.011,1.31 l -122.007,0 z"
       sodipodi:ry="97.60556"
       sodipodi:rx="122.00695"
       sodipodi:cy="1570.5621"
       sodipodi:cx="2699.6809"
       id="path6206"
       style="fill:#fa931d;fill-opacity:1;stroke:none"
       sodipodi:type="arc" />
    <g
       transform="translate(-1.0749665e-4,0)"
       id="g6265">
      <rect
         style="fill:#fa931d;fill-opacity:1;stroke:none"
         id="rect6208"
         width="232.99937"
         height="35.303001"
         x="2269.1721"
         y="2098.0422"
         rx="20"
         ry="20"
         transform="matrix(0.96592583,-0.25881905,0.25881905,0.96592583,0,0)" />
      <rect
         transform="matrix(0.96592583,-0.25881905,0.25881905,0.96592583,0,0)"
         ry="20"
         rx="20"
         y="2139.4255"
         x="2258.0835"
         height="35.303001"
         width="232.99937"
         id="rect6210"
         style="fill:#fa931d;fill-opacity:1;stroke:none" />
      <rect
         style="fill:#fa931d;fill-opacity:1;stroke:none"
         id="rect6223"
         width="232.99937"
         height="35.303001"
         x="2246.9949"
         y="2180.8091"
         rx="20"
         ry="20"
         transform="matrix(0.96592583,-0.25881905,0.25881905,0.96592583,0,0)" />
      <rect
         transform="matrix(0.96592583,-0.25881905,0.25881905,0.96592583,0,0)"
         ry="20"
         rx="20"
         y="2222.1924"
         x="2235.9062"
         height="35.303001"
         width="232.99937"
         id="rect6225"
         style="fill:#fa931d;fill-opacity:1;stroke:none" />
      <rect
         style="fill:#fa931d;fill-opacity:1;stroke:none"
         id="rect6227"
         width="232.99937"
         height="35.303001"
         x="2224.8176"
         y="2263.5757"
         rx="20"
         ry="20"
         transform="matrix(0.96592583,-0.25881905,0.25881905,0.96592583,0,0)" />
      <path
         style="fill:#fa931d;fill-opacity:1;stroke:none"
         d="m 2946.5625,1597.5625 c -1.9501,-0.01 -3.962,0.2436 -5.9687,0.7813 l -72.6876,19.4687 96.9376,-1.125 c 0.3183,-2.1261 0.237,-4.3011 -0.3438,-6.4687 -2.0564,-7.6747 -9.4873,-12.6137 -17.9375,-12.6563 z"
         id="rect6259"
         inkscape:connector-curvature="0"
         sodipodi:nodetypes="ccccsc" />
    </g>
  </g>
  <path
     style="opacity:0.10899999;fill:url(#linearGradient6144);fill-opacity:1;stroke:none"
     d="m 838.11528,506.64951 -706.46875,2.59375 c -23.26579,7.07889 -40.03125,27.83805 -40.03125,52.46875 l 0,454.34379 c 221.85264,90.9179 503.65284,145.2812 810.0625,145.2812 289.56662,0 556.90852,-48.5058 772.50002,-130.4375 l 0,-469.18749 c 0,-30.50416 -25.7229,-55.0625 -57.6562,-55.0625 l -778.40632,0 z"
     id="path4418"
     inkscape:connector-curvature="0" />
</svg>
